<?xml version="1.0" encoding="UTF-8"?>
<svg xmlns="http://www.w3.org/2000/svg" viewBox="0 0 480 320" fill="none" stroke="#1F1B16" stroke-width="2.6" stroke-linecap="round" stroke-linejoin="round"><circle cx="58" cy="56" r="24"/><path d="M58 22 V12 M58 100 V90 M24 56 H14 M102 56 H92 M34 32 l-7 -7 M82 80 l7 7 M82 32 l7 -7 M34 80 l-7 7"/><circle cx="51" cy="52" r="2.2" fill="#1F1B16"/><circle cx="65" cy="52" r="2.2" fill="#1F1B16"/><path d="M51 63 q7 6 14 0"/><path d="M120 90 l3 7 l7 3 l-7 3 l-3 7 l-3 -7 l-7 -3 l7 -3z"/><path d="M0 292 H480"/><path d="M360 60 L410 116 L360 172 L310 116 Z"/><path d="M360 60 V172 M310 116 H410"/><path d="M360 172 Q348 196 362 214 Q376 232 360 200 Q350 224 364 244"/><path d="M352 196 l16 0 M350 216 l16 -2 M356 236 l14 0"/><path d="M150 238 C 118 208 112 176 134 162 C 146 154 160 158 155 174 C 150 158 168 152 180 163 C 200 179 192 210 150 238 Z"/><circle cx="141" cy="186" r="3"/><circle cx="163" cy="186" r="3"/><path d="M143 198 q9 7 18 0"/><path d="M150 238 V262 M170 234 V258"/><path d="M126 196 l-16 8"/><path d="M184 176 L206 150"/><path d="M206 150 L310 128" stroke-dasharray="3 5"/></svg>