<svg xmlns="http://www.w3.org/2000/svg" viewBox="0 0 140 200"><defs><marker id="ah" viewBox="0 0 10 10" refX="7.5" refY="5" markerWidth="3.4" markerHeight="3.4" orient="auto-start-reverse"><path d="M0 0 L10 5 L0 10 z" fill="#10b981"/></marker></defs><path d="M40 50 V158" fill="none" stroke="#d8ceba" stroke-width="26" stroke-linecap="round" stroke-linejoin="round"/><path d="M40 50 H74 Q98 50 98 78 Q98 104 74 104 H40" fill="none" stroke="#d8ceba" stroke-width="26" stroke-linecap="round" stroke-linejoin="round"/><path d="M40 104 H82 Q108 104 108 132 Q108 158 82 158 H40" fill="none" stroke="#d8ceba" stroke-width="26" stroke-linecap="round" stroke-linejoin="round"/><line x1="40" y1="56" x2="40" y2="152" stroke="#10b981" stroke-width="6.5" stroke-linecap="round" stroke-dasharray="0.1 13" marker-end="url(#ah)"/><path d="M44 52 H74 Q94 52 94 78 Q94 100 72 102" fill="none" stroke="#10b981" stroke-width="6.5" stroke-linecap="round" stroke-dasharray="0.1 13" marker-end="url(#ah)"/><path d="M44 104 H82 Q104 104 104 132 Q104 154 82 154" fill="none" stroke="#10b981" stroke-width="6.5" stroke-linecap="round" stroke-dasharray="0.1 13" marker-end="url(#ah)"/><circle cx="40" cy="50" r="12" fill="#10b981"/><text x="40" y="50" font-family="Arial" font-size="14" font-weight="700" fill="#fff" text-anchor="middle" dominant-baseline="central">1</text><circle cx="40" cy="104" r="10" fill="#10b981"/><text x="40" y="104" font-family="Arial" font-size="14" font-weight="700" fill="#fff" text-anchor="middle" dominant-baseline="central">2</text></svg>