<?xml version="1.0" encoding="UTF-8"?>
<svg xmlns="http://www.w3.org/2000/svg" viewBox="0 0 260 260"><path d="M180 52 V206" stroke="#e7e0cf" stroke-width="26" stroke-linecap="round" stroke-linejoin="round" fill="none"/><path d="M180 160 Q180 206 130 206 Q80 206 80 178 Q80 150 130 150 Q180 150 180 160" stroke="#e7e0cf" stroke-width="26" stroke-linecap="round" stroke-linejoin="round" fill="none"/><path d="M180 62 V198" stroke="#10b981" stroke-width="3.5" stroke-dasharray="1 10" stroke-linecap="round" fill="none"/><path d="M174 194 L180 210 L186 194 Z" fill="#10b981"/><path d="M178 168 Q176 202 130 202 Q84 202 84 178 Q84 154 128 154 Q172 154 176 172" stroke="#10b981" stroke-width="3.5" stroke-dasharray="1 10" stroke-linecap="round" fill="none"/><path d="M170 166 L180 152 L164 152 Z" fill="#10b981"/><circle cx="180" cy="52" r="13" fill="#047857"/><text x="180" y="57" text-anchor="middle" font-family="Arial" font-size="15" font-weight="bold" fill="#fff">1</text><circle cx="180" cy="160" r="13" fill="#10b981"/><text x="180" y="165" text-anchor="middle" font-family="Arial" font-size="15" font-weight="bold" fill="#fff">2</text></svg>